<?xml version="1.0" standalone="no"?>
<!DOCTYPE svg PUBLIC "-//W3C//DTD SVG 20010904//EN"
 "http://www.w3.org/TR/2001/REC-SVG-20010904/DTD/svg10.dtd">
<svg version="1.0" xmlns="http://www.w3.org/2000/svg"
 width="440.000000pt" height="167.000000pt" viewBox="0 0 440.000000 167.000000"
 preserveAspectRatio="xMidYMid meet">

<g transform="translate(0.000000,167.000000) scale(0.100000,-0.100000)"
fill="white" stroke="none">
<path d="M0 835 l0 -835 2200 0 2200 0 0 835 0 835 -2200 0 -2200 0 0 -835z
m460 420 l0 -215 105 0 105 0 0 -50 0 -50 -105 0 -105 0 0 -200 c0 -251 7
-287 70 -352 49 -50 49 -51 102 -46 29 3 61 9 70 13 13 5 20 0 28 -19 26 -70
26 -71 -34 -86 -63 -15 -150 -9 -192 13 -44 23 -101 84 -126 136 -23 46 -23
49 -26 559 l-3 512 56 0 55 0 0 -215z m1593 -135 c78 -39 173 -132 210 -208
48 -95 52 -130 52 -412 l0 -265 -57 -3 -57 -3 -3 102 -3 102 -28 -40 c-34 -49
-95 -94 -168 -124 -78 -33 -240 -33 -319 -1 -80 32 -147 88 -201 166 -50 74
-66 117 -79 208 -25 176 71 373 224 463 76 45 128 55 251 52 101 -3 115 -6
178 -37z m-741 7 l27 -12 -29 -47 c-27 -43 -32 -46 -62 -42 -67 11 -187 -106
-219 -211 -7 -24 -13 -144 -16 -308 l-5 -267 -59 0 -59 0 0 253 c0 276 5 313
60 423 80 163 249 261 362 211z m1376 -167 c62 -88 116 -160 120 -160 4 1 58
73 120 160 l113 160 64 0 c36 0 65 -2 65 -5 0 -2 -66 -95 -146 -206 -115 -157
-144 -205 -138 -218 20 -40 318 -440 325 -435 11 7 308 420 315 438 4 10 -48
90 -140 218 l-147 203 57 3 c31 2 62 1 69 -2 7 -2 60 -72 119 -155 59 -83 111
-153 116 -156 5 -3 59 65 121 151 62 86 118 158 125 161 6 2 37 3 69 1 l57 -3
-150 -206 -149 -207 149 -203 c82 -112 159 -216 170 -231 l19 -28 -69 0 -69 0
-134 185 c-73 101 -136 181 -140 177 -3 -4 -63 -87 -133 -184 l-127 -178 -132
0 -132 0 -134 185 -134 185 -49 -68 c-27 -37 -85 -120 -131 -184 l-82 -117
-67 -1 c-38 0 -68 1 -68 3 0 1 74 105 164 231 l164 228 -136 189 c-76 104
-143 198 -151 209 -13 19 -11 20 55 20 l69 -1 113 -159z"/>
<path d="M1751 1039 c-70 -21 -169 -106 -204 -175 -42 -85 -47 -221 -9 -306
26 -60 84 -123 152 -167 52 -33 60 -35 140 -35 74 -1 93 3 142 27 107 53 208
204 208 311 0 156 -62 264 -190 331 -41 22 -186 30 -239 14z"/>
</g>
</svg>
